<svg width="18" height="18" viewBox="0 0 18 18" fill="none" xmlns="http://www.w3.org/2000/svg">
<path d="M9 10.125C12.0037 10.125 18 11.6325 18 14.625V18H0V14.625C0 11.6325 5.99625 10.125 9 10.125ZM9 0C10.1935 0 11.3381 0.474106 12.182 1.31802C13.0259 2.16193 13.5 3.30653 13.5 4.5C13.5 5.69347 13.0259 6.83807 12.182 7.68198C11.3381 8.52589 10.1935 9 9 9C7.80653 9 6.66193 8.52589 5.81802 7.68198C4.97411 6.83807 4.5 5.69347 4.5 4.5C4.5 3.30653 4.97411 2.16193 5.81802 1.31802C6.66193 0.474106 7.80653 0 9 0ZM9 12.2625C5.65875 12.2625 2.1375 13.905 2.1375 14.625V15.8625H15.8625V14.625C15.8625 13.905 12.3413 12.2625 9 12.2625ZM9 2.1375C8.37343 2.1375 7.77251 2.38641 7.32946 2.82946C6.88641 3.27251 6.6375 3.87343 6.6375 4.5C6.6375 5.12657 6.88641 5.72749 7.32946 6.17054C7.77251 6.61359 8.37343 6.8625 9 6.8625C9.62657 6.8625 10.2275 6.61359 10.6705 6.17054C11.1136 5.72749 11.3625 5.12657 11.3625 4.5C11.3625 3.87343 11.1136 3.27251 10.6705 2.82946C10.2275 2.38641 9.62657 2.1375 9 2.1375Z" fill="#4E4E4E"/>
</svg>
