<svg width="24" height="24" viewBox="0 0 24 24" fill="none" xmlns="http://www.w3.org/2000/svg">
<g clip-path="url(#clip0_25_427)">
<path d="M12.0001 0.0952148C10.4367 0.0952148 8.8887 0.403141 7.44434 1.00141C5.99999 1.59968 4.68762 2.47658 3.58216 3.58204C1.34958 5.81461 0.0953369 8.84264 0.0953369 12C0.0953369 15.1573 1.34958 18.1853 3.58216 20.4179C4.68762 21.5234 5.99999 22.4003 7.44434 22.9985C8.8887 23.5968 10.4367 23.9047 12.0001 23.9047C15.1574 23.9047 18.1855 22.6505 20.418 20.4179C22.6506 18.1853 23.9049 15.1573 23.9049 12C23.9049 10.4366 23.5969 8.88857 22.9987 7.44422C22.4004 5.99987 21.5235 4.6875 20.418 3.58204C19.3126 2.47658 18.0002 1.59968 16.5559 1.00141C15.1115 0.403141 13.5635 0.0952148 12.0001 0.0952148ZM6.13105 19.4762C6.64296 18.4047 9.762 17.3571 12.0001 17.3571C14.2382 17.3571 17.3572 18.4047 17.8691 19.4762C16.2501 20.7619 14.2144 21.5238 12.0001 21.5238C9.78581 21.5238 7.7501 20.7619 6.13105 19.4762ZM19.5715 17.75C17.8691 15.6785 13.7382 14.9762 12.0001 14.9762C10.262 14.9762 6.13105 15.6785 4.42867 17.75C3.21438 16.1666 2.47629 14.1666 2.47629 12C2.47629 6.74998 6.7501 2.47617 12.0001 2.47617C17.2501 2.47617 21.5239 6.74998 21.5239 12C21.5239 14.1666 20.7858 16.1666 19.5715 17.75ZM12.0001 4.85712C9.69057 4.85712 7.83343 6.71426 7.83343 9.02379C7.83343 11.3333 9.69057 13.1905 12.0001 13.1905C14.3096 13.1905 16.1668 11.3333 16.1668 9.02379C16.1668 6.71426 14.3096 4.85712 12.0001 4.85712ZM12.0001 10.8095C11.5265 10.8095 11.0723 10.6214 10.7374 10.2865C10.4025 9.95159 10.2144 9.49739 10.2144 9.02379C10.2144 8.55019 10.4025 8.09598 10.7374 7.7611C11.0723 7.42621 11.5265 7.23807 12.0001 7.23807C12.4737 7.23807 12.9279 7.42621 13.2628 7.7611C13.5977 8.09598 13.7858 8.55019 13.7858 9.02379C13.7858 9.49739 13.5977 9.95159 13.2628 10.2865C12.9279 10.6214 12.4737 10.8095 12.0001 10.8095Z" fill="#F84D01"/>
</g>
<defs>
<clipPath id="clip0_25_427">
<rect width="24" height="24" fill="white"/>
</clipPath>
</defs>
</svg>
