<svg width="20" height="22" viewBox="0 0 20 22" fill="none" xmlns="http://www.w3.org/2000/svg">
<path d="M4.44444 11H6.66667V13.2H4.44444V11ZM20 4.4V19.8C20 21.021 19.0111 22 17.7778 22H2.22222C0.988889 22 0 21.01 0 19.8V4.4C0 3.19 1 2.2 2.22222 2.2H3.33333V0H5.55556V2.2H14.4444V0H16.6667V2.2H17.7778C19.0111 2.2 20 3.19 20 4.4ZM2.22222 6.6H17.7778V4.4H2.22222V6.6ZM17.7778 19.8V8.8H2.22222V19.8H17.7778ZM13.3333 13.2V11H15.5556V13.2H13.3333ZM8.88889 13.2V11H11.1111V13.2H8.88889ZM4.44444 15.4H6.66667V17.6H4.44444V15.4ZM13.3333 17.6V15.4H15.5556V17.6H13.3333ZM8.88889 17.6V15.4H11.1111V17.6H8.88889Z" fill="#F84D01"/>
</svg>
