<svg width="30" height="30" viewBox="0 0 30 30" fill="none" xmlns="http://www.w3.org/2000/svg">
<rect x="4" y="4" width="12" height="12" fill="#4E4E4E"/>
<path d="M9.96674 7.2732L9.08674 10.4132C9.08007 10.4332 9.0834 10.4532 9.09674 10.4732C9.11007 10.4932 9.12674 10.5032 9.14674 10.5032H10.8067C10.8267 10.5032 10.8434 10.4932 10.8567 10.4732C10.8701 10.4532 10.8734 10.4332 10.8667 10.4132L9.98674 7.2732C9.98674 7.26654 9.9834 7.2632 9.97674 7.2632C9.97007 7.2632 9.96674 7.26654 9.96674 7.2732ZM7.37674 13.3332C7.23674 13.3332 7.12674 13.2765 7.04674 13.1632C6.96674 13.0499 6.95007 12.9265 6.99674 12.7932L9.06674 6.5732C9.12674 6.4132 9.2234 6.2832 9.35674 6.1832C9.49674 6.0832 9.65007 6.0332 9.81674 6.0332H10.1767C10.3501 6.0332 10.5034 6.0832 10.6367 6.1832C10.7767 6.2832 10.8734 6.4132 10.9267 6.5732L12.9967 12.7932C13.0434 12.9265 13.0267 13.0499 12.9467 13.1632C12.8667 13.2765 12.7567 13.3332 12.6167 13.3332H12.2567C12.0967 13.3332 11.9467 13.2832 11.8067 13.1832C11.6734 13.0765 11.5834 12.9432 11.5367 12.7832L11.2167 11.6532C11.2101 11.5999 11.1734 11.5732 11.1067 11.5732H8.84674C8.78674 11.5732 8.75007 11.5999 8.73674 11.6532L8.41674 12.7832C8.37674 12.9432 8.28674 13.0765 8.14674 13.1832C8.0134 13.2832 7.8634 13.3332 7.69674 13.3332H7.37674Z" fill="white"/>
<path d="M23.8161 17.6959H22.8734V23.3332H22.2387V20.4679H20.2787C20.3596 20.6545 20.4001 20.891 20.4001 21.1772C20.4001 21.731 20.2445 22.1448 19.9334 22.4185C19.6285 22.6923 19.1432 22.8292 18.4774 22.8292C18.1663 22.8292 17.8707 22.8012 17.5907 22.7452C17.3107 22.6892 17.0712 22.6208 16.8721 22.5399V21.7745C17.1272 21.8741 17.3605 21.9488 17.5721 21.9985C17.7898 22.0421 18.0574 22.0639 18.3747 22.0639C18.7232 22.0639 18.9938 22.0328 19.1867 21.9705C19.3858 21.9021 19.5258 21.7994 19.6067 21.6625C19.6876 21.5194 19.7281 21.3203 19.7281 21.0652C19.7281 20.723 19.6472 20.4803 19.4854 20.3372C19.3298 20.1879 19.0561 20.1132 18.6641 20.1132H17.7307V19.3852H18.6641C18.9192 19.3852 19.1152 19.3572 19.2521 19.3012C19.389 19.2452 19.4854 19.1519 19.5414 19.0212C19.5974 18.8905 19.6254 18.7008 19.6254 18.4519C19.6254 18.2403 19.6005 18.0816 19.5507 17.9759C19.501 17.8639 19.4076 17.7861 19.2707 17.7425C19.1338 17.699 18.9254 17.6772 18.6454 17.6772C18.1414 17.6772 17.6841 17.7301 17.2734 17.8359V17.0705C17.6965 16.9648 18.1445 16.9119 18.6174 16.9119C19.2272 16.9119 19.6596 17.0301 19.9147 17.2665C20.1698 17.4968 20.2974 17.867 20.2974 18.3772C20.2974 18.8439 20.2103 19.1892 20.0361 19.4132C19.8681 19.631 19.6441 19.7399 19.3641 19.7399H22.2387V17.6959H20.9694V16.9865H23.8161V17.6959Z" fill="#4E4E4E"/>
<path fill-rule="evenodd" clip-rule="evenodd" d="M14 16.668V25V26H15H25H26V25V15V14H25H16.6666V15H25V25H15V16.668H14Z" fill="#4E4E4E"/>
</svg>
